<svg width="21" height="15" viewBox="0 0 21 15" fill="none" xmlns="http://www.w3.org/2000/svg">
<path d="M0 14.6153V12.3922C0 11.8769 0.133012 11.4169 0.399036 11.0125C0.665059 10.608 1.02033 10.2933 1.46485 10.0684C2.41519 9.60354 3.37081 9.24516 4.3317 8.99324C5.29259 8.74132 6.34868 8.61536 7.49996 8.61536C8.65125 8.61536 9.70734 8.74132 10.6682 8.99324C11.6291 9.24516 12.5847 9.60354 13.5351 10.0684C13.9796 10.2933 14.3349 10.608 14.6009 11.0125C14.8669 11.4169 14.9999 11.8769 14.9999 12.3922V14.6153H0ZM16.9999 14.6153V12.2692C16.9999 11.6128 16.8392 10.9872 16.5178 10.3924C16.1963 9.7977 15.7404 9.28739 15.15 8.86152C15.8205 8.96152 16.457 9.11632 17.0595 9.32594C17.6621 9.53555 18.2371 9.7833 18.7845 10.0692C19.3012 10.3448 19.7002 10.6697 19.9816 11.0438C20.263 11.4179 20.4037 11.8264 20.4037 12.2692V14.6153H16.9999ZM7.49996 6.99993C6.53459 6.99993 5.70992 6.65794 5.02595 5.97398C4.34198 5.29001 4 4.46534 4 3.49996C4 2.53459 4.34198 1.70992 5.02595 1.02595C5.70992 0.341984 6.53459 0 7.49996 0C8.46534 0 9.29001 0.341984 9.97398 1.02595C10.6579 1.70992 10.9999 2.53459 10.9999 3.49996C10.9999 4.46534 10.6579 5.29001 9.97398 5.97398C9.29001 6.65794 8.46534 6.99993 7.49996 6.99993ZM16.1345 3.49996C16.1345 4.46534 15.7918 5.29001 15.1064 5.97398C14.421 6.65794 13.597 6.99993 12.6345 6.99993C12.5217 6.99993 12.3781 6.98711 12.2038 6.96147C12.0294 6.93583 11.8858 6.90762 11.773 6.87686C12.1674 6.40274 12.4705 5.87676 12.6822 5.29893C12.894 4.72111 12.9999 4.12105 12.9999 3.49877C12.9999 2.8765 12.8919 2.27882 12.6759 1.70575C12.4599 1.13268 12.1589 0.605119 11.773 0.123071C11.9166 0.0717916 12.0602 0.0384598 12.2038 0.0230759C12.3473 0.00769196 12.4909 0 12.6345 0C13.597 0 14.421 0.341984 15.1064 1.02595C15.7918 1.70992 16.1345 2.53459 16.1345 3.49996ZM1.49996 13.1153H13.5V12.3922C13.5 12.1833 13.4477 11.9974 13.3432 11.8346C13.2387 11.6717 13.073 11.5294 12.8461 11.4076C12.023 10.9833 11.1756 10.6618 10.3038 10.4432C9.43202 10.2246 8.4974 10.1153 7.49996 10.1153C6.50252 10.1153 5.56791 10.2246 4.69612 10.4432C3.82432 10.6618 2.97689 10.9833 2.15382 11.4076C1.92689 11.5294 1.76118 11.6717 1.6567 11.8346C1.55221 11.9974 1.49996 12.1833 1.49996 12.3922V13.1153ZM7.49996 5.49996C8.04996 5.49996 8.5208 5.30413 8.91246 4.91246C9.30413 4.5208 9.49996 4.04996 9.49996 3.49996C9.49996 2.94996 9.30413 2.47913 8.91246 2.08746C8.5208 1.6958 8.04996 1.49996 7.49996 1.49996C6.94996 1.49996 6.47913 1.6958 6.08746 2.08746C5.6958 2.47913 5.49996 2.94996 5.49996 3.49996C5.49996 4.04996 5.6958 4.5208 6.08746 4.91246C6.47913 5.30413 6.94996 5.49996 7.49996 5.49996Z" fill="black"/>
</svg>
