<svg width="17" height="17" viewBox="0 0 17 17" fill="none" xmlns="http://www.w3.org/2000/svg">
<path d="M8.49996 16.9999C6.07305 16.9999 4.04966 16.6573 2.42979 15.9721C0.809931 15.2868 0 14.4307 0 13.4038V3.49996C0 2.53459 0.829483 1.70992 2.48845 1.02595C4.14742 0.341984 6.15126 0 8.49996 0C10.8487 0 12.8525 0.341984 14.5115 1.02595C16.1704 1.70992 16.9999 2.53459 16.9999 3.49996V13.4038C16.9999 14.4307 16.19 15.2868 14.5701 15.9721C12.9503 16.6573 10.9269 16.9999 8.49996 16.9999ZM8.49996 5.45765C9.95765 5.45765 11.4253 5.25156 12.9028 4.83938C14.3804 4.4272 15.2365 3.98265 15.4711 3.50573C15.2429 3.01599 14.3958 2.55926 12.9298 2.13554C11.4637 1.71182 9.98714 1.49996 8.49996 1.49996C7.01535 1.49996 5.54388 1.70605 4.08554 2.11823C2.62721 2.53041 1.76856 2.98009 1.50958 3.46727C1.76214 3.96727 2.61439 4.424 4.06631 4.83746C5.51823 5.25092 6.99612 5.45765 8.49996 5.45765ZM8.49996 10.4615C9.19355 10.4615 9.86855 10.4282 10.525 10.3615C11.1814 10.2948 11.8086 10.1974 12.4067 10.0692C13.0048 9.94099 13.5647 9.78201 14.0865 9.59227C14.6083 9.40252 15.0795 9.18778 15.5 8.94803V5.39992C15.0795 5.63966 14.6083 5.85441 14.0865 6.04415C13.5647 6.23389 13.0048 6.39287 12.4067 6.52107C11.8086 6.64928 11.1814 6.74672 10.525 6.81338C9.86855 6.88005 9.19355 6.91338 8.49996 6.91338C7.79355 6.91338 7.10541 6.87845 6.43554 6.80857C5.76567 6.7387 5.1333 6.63966 4.53842 6.51146C3.94355 6.38325 3.38938 6.22588 2.87592 6.03934C2.36246 5.8528 1.90381 5.63966 1.49996 5.39992V8.94803C1.90381 9.18778 2.36246 9.40092 2.87592 9.58746C3.38938 9.774 3.94355 9.93137 4.53842 10.0596C5.1333 10.1878 5.76567 10.2868 6.43554 10.3567C7.10541 10.4266 7.79355 10.4615 8.49996 10.4615ZM8.49996 15.5C9.31151 15.5 10.1083 15.4464 10.8904 15.3394C11.6724 15.2323 12.3839 15.0862 13.025 14.9009C13.666 14.7157 14.2067 14.5006 14.6471 14.2557C15.0875 14.0109 15.3718 13.7538 15.5 13.4846V10.448C15.0795 10.6877 14.6083 10.9025 14.0865 11.0922C13.5647 11.282 13.0048 11.4409 12.4067 11.5692C11.8086 11.6974 11.1814 11.7948 10.525 11.8615C9.86855 11.9281 9.19355 11.9615 8.49996 11.9615C7.79355 11.9615 7.10541 11.9265 6.43554 11.8567C5.76567 11.7868 5.1333 11.6877 4.53842 11.5595C3.94355 11.4313 3.38938 11.274 2.87592 11.0874C2.36246 10.9009 1.90381 10.6877 1.49996 10.448V13.5C1.62817 13.7756 1.9099 14.0317 2.34516 14.2682C2.78042 14.5048 3.31856 14.7157 3.95958 14.9009C4.6006 15.0862 5.3147 15.2323 6.10188 15.3394C6.88906 15.4464 7.68842 15.5 8.49996 15.5Z" fill="black"/>
</svg>
