<svg width="45" height="52" viewBox="0 0 45 52" fill="none" xmlns="http://www.w3.org/2000/svg">
<g filter="url(#filter0_d_82_267)">
<rect x="2" y="1" width="40.84" height="48" rx="20.42" fill="white" shape-rendering="crispEdges"/>
<path d="M13.0356 22.8173C13.0356 21.343 13.3488 19.9821 13.9751 18.7347C14.6013 17.4873 15.4465 16.4341 16.5106 15.5751L17.4356 16.7424C16.5446 17.4629 15.8385 18.3462 15.3173 19.3924C14.7962 20.4385 14.5356 21.5802 14.5356 22.8173H13.0356ZM30.3048 22.8173C30.3048 21.5802 30.0442 20.4369 29.5231 19.3876C29.0019 18.3382 28.2959 17.4533 27.4048 16.7328L28.3298 15.5751C29.3939 16.4341 30.2391 17.4873 30.8654 18.7347C31.4916 19.9821 31.8048 21.343 31.8048 22.8173H30.3048ZM14.9203 31.7885V30.2885H16.7279V22.827C16.7279 21.4821 17.143 20.293 17.9731 19.2597C18.8032 18.2263 19.869 17.5654 21.1702 17.277V16.6539C21.1702 16.3078 21.292 16.0129 21.5356 15.7693C21.7792 15.5257 22.0741 15.4039 22.4202 15.4039C22.7664 15.4039 23.0612 15.5257 23.3048 15.7693C23.5484 16.0129 23.6702 16.3078 23.6702 16.6539V17.277C24.9715 17.5654 26.0372 18.2263 26.8673 19.2597C27.6974 20.293 28.1125 21.4821 28.1125 22.827V30.2885H29.9202V31.7885H14.9203ZM22.4202 34.5962C21.9215 34.5962 21.4955 34.4196 21.1423 34.0664C20.7891 33.7132 20.6125 33.2872 20.6125 32.7885H24.2279C24.2279 33.2872 24.0513 33.7132 23.6981 34.0664C23.3449 34.4196 22.9189 34.5962 22.4202 34.5962ZM18.2279 30.2885H26.6125V22.827C26.6125 21.6693 26.2032 20.6811 25.3846 19.8625C24.5661 19.0439 23.5779 18.6346 22.4202 18.6346C21.2625 18.6346 20.2744 19.0439 19.4558 19.8625C18.6372 20.6811 18.2279 21.6693 18.2279 22.827V30.2885Z" fill="#735C00"/>
</g>
<defs>
<filter id="filter0_d_82_267" x="0" y="0" width="44.8398" height="52" filterUnits="userSpaceOnUse" color-interpolation-filters="sRGB">
<feFlood flood-opacity="0" result="BackgroundImageFix"/>
<feColorMatrix in="SourceAlpha" type="matrix" values="0 0 0 0 0 0 0 0 0 0 0 0 0 0 0 0 0 0 127 0" result="hardAlpha"/>
<feOffset dy="1"/>
<feGaussianBlur stdDeviation="1"/>
<feComposite in2="hardAlpha" operator="out"/>
<feColorMatrix type="matrix" values="0 0 0 0 0 0 0 0 0 0 0 0 0 0 0 0 0 0 0.05 0"/>
<feBlend mode="normal" in2="BackgroundImageFix" result="effect1_dropShadow_82_267"/>
<feBlend mode="normal" in="SourceGraphic" in2="effect1_dropShadow_82_267" result="shape"/>
</filter>
</defs>
</svg>
