<svg width="14" height="12" viewBox="0 0 14 12" fill="none" xmlns="http://www.w3.org/2000/svg">
<path d="M0 7.5V6H5.25V7.5H0ZM0 4.5V3H8.25V4.5H0ZM0 1.5V0H8.25V1.5H0ZM6.75 12V9.69375L10.8938 5.56875C11.0063 5.45625 11.1313 5.375 11.2688 5.325C11.4062 5.275 11.5437 5.25 11.6812 5.25C11.8312 5.25 11.975 5.27812 12.1125 5.33437C12.25 5.39062 12.375 5.475 12.4875 5.5875L13.1812 6.28125C13.2812 6.39375 13.3594 6.51875 13.4156 6.65625C13.4719 6.79375 13.5 6.93125 13.5 7.06875C13.5 7.20625 13.475 7.34687 13.425 7.49062C13.375 7.63438 13.2937 7.7625 13.1812 7.875L9.05625 12H6.75ZM12.375 7.06875L11.6812 6.375L12.375 7.06875ZM7.875 10.875H8.5875L10.8562 8.5875L10.5188 8.23125L10.1625 7.89375L7.875 10.1625V10.875ZM10.5188 8.23125L10.1625 7.89375L10.8562 8.5875L10.5188 8.23125Z" fill="white"/>
</svg>
