<svg width="15" height="19" viewBox="0 0 15 19" fill="none" xmlns="http://www.w3.org/2000/svg">
<path d="M7.49996 18.9422C5.33715 18.3525 3.54646 17.0794 2.12787 15.123C0.709292 13.1666 0 10.9794 0 8.5615V2.80768L7.49996 0L14.9999 2.80768V8.5615C14.9999 9.83072 14.7919 11.0618 14.3759 12.2547C13.9599 13.4477 13.3435 14.5409 12.5269 15.5345L9.38457 12.3922C9.11021 12.582 8.81182 12.7243 8.48938 12.8192C8.16695 12.914 7.83714 12.9615 7.49996 12.9615C6.53747 12.9615 5.71352 12.6188 5.02811 11.9333C4.3427 11.2479 4 10.424 4 9.4615C4 8.49901 4.34198 7.67506 5.02595 6.98965C5.70992 6.30424 6.53459 5.96154 7.49996 5.96154C8.46534 5.96154 9.29001 6.30424 9.97398 6.98965C10.6579 7.67506 10.9999 8.49901 10.9999 9.4615C10.9999 9.79906 10.9541 10.1251 10.8624 10.4397C10.7708 10.7542 10.6397 11.0538 10.4692 11.3384L12.3346 13.2038C12.6935 12.5013 12.9775 11.7638 13.1865 10.9913C13.3955 10.2189 13.5 9.40894 13.5 8.5615V3.8365L7.49996 1.59612L1.49996 3.8365V8.5615C1.49996 10.5782 2.06663 12.4115 3.19996 14.0615C4.3333 15.7115 5.76663 16.8115 7.49996 17.3615C7.9333 17.2282 8.3458 17.0573 8.73746 16.849C9.12913 16.6407 9.51663 16.3948 9.89996 16.1115L10.9153 17.1846C10.391 17.5897 9.85122 17.9381 9.2961 18.2297C8.74098 18.5214 8.14227 18.7589 7.49996 18.9422ZM7.49996 11.4615C8.04996 11.4615 8.5208 11.2657 8.91246 10.874C9.30413 10.4823 9.49996 10.0115 9.49996 9.4615C9.49996 8.9115 9.30413 8.44067 8.91246 8.049C8.5208 7.65733 8.04996 7.4615 7.49996 7.4615C6.94996 7.4615 6.47913 7.65733 6.08746 8.049C5.6958 8.44067 5.49996 8.9115 5.49996 9.4615C5.49996 10.0115 5.6958 10.4823 6.08746 10.874C6.47913 11.2657 6.94996 11.4615 7.49996 11.4615Z" fill="black"/>
</svg>
