<svg width="18" height="18" viewBox="0 0 18 18" fill="none" xmlns="http://www.w3.org/2000/svg">
<path d="M15 17.7419C14.1667 17.7419 13.4583 17.4832 12.875 16.9657C12.2917 16.4483 12 15.8199 12 15.0806C12 14.9919 12.025 14.7849 12.075 14.4597L5.05 10.8226C4.78333 11.0444 4.475 11.2182 4.125 11.3442C3.775 11.4702 3.4 11.5328 3 11.5323C2.16667 11.5323 1.45833 11.2735 0.875 10.756C0.291667 10.2386 0 9.61022 0 8.87097C0 8.13172 0.291667 7.50336 0.875 6.98589C1.45833 6.46841 2.16667 6.20968 3 6.20968C3.4 6.20968 3.775 6.27266 4.125 6.39863C4.475 6.5246 4.78333 6.69817 5.05 6.91935L12.075 3.28226C12.0417 3.17876 12.021 3.07911 12.013 2.98331C12.005 2.8875 12.0007 2.78016 12 2.66129C12 1.92204 12.2917 1.29368 12.875 0.77621C13.4583 0.258737 14.1667 0 15 0C15.8333 0 16.5417 0.258737 17.125 0.77621C17.7083 1.29368 18 1.92204 18 2.66129C18 3.40054 17.7083 4.0289 17.125 4.54637C16.5417 5.06384 15.8333 5.32258 15 5.32258C14.6 5.32258 14.225 5.2596 13.875 5.13363C13.525 5.00766 13.2167 4.83409 12.95 4.6129L5.925 8.25C5.95833 8.35349 5.97933 8.45344 5.988 8.54984C5.99667 8.64624 6.00067 8.75328 6 8.87097C5.99933 8.98866 5.99533 9.09599 5.988 9.19298C5.98067 9.28997 5.95967 9.38962 5.925 9.49193L12.95 13.129C13.2167 12.9073 13.525 12.7337 13.875 12.6083C14.225 12.4829 14.6 12.4199 15 12.4194C15.8333 12.4194 16.5417 12.6781 17.125 13.1956C17.7083 13.713 18 14.3414 18 15.0806C18 15.8199 17.7083 16.4483 17.125 16.9657C16.5417 17.4832 15.8333 17.7419 15 17.7419ZM15 15.9677C15.2833 15.9677 15.521 15.8829 15.713 15.7131C15.905 15.5434 16.0007 15.3326 16 15.0806C15.9993 14.8287 15.9033 14.6182 15.712 14.449C15.5207 14.2799 15.2833 14.1947 15 14.1935C14.7167 14.1924 14.4793 14.2775 14.288 14.449C14.0967 14.6205 14.0007 14.8311 14 15.0806C13.9993 15.3302 14.0953 15.541 14.288 15.7131C14.4807 15.8852 14.718 15.9701 15 15.9677ZM3 9.75806C3.28333 9.75806 3.521 9.6729 3.713 9.50258C3.905 9.33226 4.00067 9.12172 4 8.87097C3.99933 8.62022 3.90333 8.40968 3.712 8.23936C3.52067 8.06903 3.28333 7.98387 3 7.98387C2.71667 7.98387 2.47933 8.06903 2.288 8.23936C2.09667 8.40968 2.00067 8.62022 2 8.87097C1.99933 9.12172 2.09533 9.33255 2.288 9.50347C2.48067 9.67438 2.718 9.75925 3 9.75806ZM15.713 3.2929C15.9043 3.12376 16 2.91323 16 2.66129C16 2.40935 15.904 2.19882 15.712 2.02968C15.52 1.86054 15.2827 1.77538 15 1.77419C14.7173 1.77301 14.48 1.85817 14.288 2.02968C14.096 2.20118 14 2.41172 14 2.66129C14 2.91086 14.096 3.12169 14.288 3.29379C14.48 3.46589 14.7173 3.55075 15 3.54839C15.2827 3.54602 15.5203 3.46086 15.713 3.2929Z" fill="black"/>
</svg>
