<svg width="19" height="19" viewBox="0 0 19 19" fill="none" xmlns="http://www.w3.org/2000/svg">
<path d="M9.48073 18.9999C8.18458 18.9999 6.96023 18.7502 5.80767 18.2509C4.65511 17.7515 3.6487 17.0717 2.78845 16.2115C1.9282 15.3512 1.24839 14.3432 0.749036 13.1874C0.249679 12.0317 0 10.8025 0 9.49996C0 8.18074 0.256409 6.94324 0.769228 5.78748C1.28205 4.63171 1.97852 3.62627 2.85864 2.77114C3.73877 1.91602 4.76825 1.24038 5.94709 0.744228C7.12594 0.248076 8.3833 0 9.7192 0C10.9692 0 12.1538 0.21314 13.273 0.63942C14.3923 1.0657 15.3753 1.65576 16.2221 2.4096C17.0688 3.16344 17.7435 4.05927 18.2461 5.09709C18.7486 6.1349 18.9999 7.26022 18.9999 8.47303C18.9999 10.2038 18.4855 11.5576 17.4567 12.5345C16.4278 13.5115 15.1089 13.9999 13.5 13.9999H11.6884C11.4038 13.9999 11.1762 14.0929 11.0057 14.2788C10.8352 14.4647 10.7499 14.6846 10.7499 14.9384C10.7499 15.2474 10.8749 15.5686 11.1249 15.9019C11.3749 16.2352 11.4999 16.6179 11.4999 17.05C11.4999 17.7102 11.3172 18.2003 10.9519 18.5201C10.5865 18.84 10.0961 18.9999 9.48073 18.9999ZM3.99996 10.2499C4.35637 10.2499 4.6538 10.1307 4.89226 9.89226C5.13072 9.6538 5.24995 9.35637 5.24995 8.99996C5.24995 8.64356 5.13072 8.34613 4.89226 8.10767C4.6538 7.86921 4.35637 7.74998 3.99996 7.74998C3.64356 7.74998 3.34613 7.86921 3.10767 8.10767C2.86921 8.34613 2.74998 8.64356 2.74998 8.99996C2.74998 9.35637 2.86921 9.6538 3.10767 9.89226C3.34613 10.1307 3.64356 10.2499 3.99996 10.2499ZM6.99996 6.24995C7.35637 6.24995 7.6538 6.13072 7.89226 5.89226C8.13072 5.6538 8.24994 5.35637 8.24994 4.99996C8.24994 4.64356 8.13072 4.34613 7.89226 4.10767C7.6538 3.86921 7.35637 3.74998 6.99996 3.74998C6.64356 3.74998 6.34613 3.86921 6.10767 4.10767C5.86921 4.34613 5.74998 4.64356 5.74998 4.99996C5.74998 5.35637 5.86921 5.6538 6.10767 5.89226C6.34613 6.13072 6.64356 6.24995 6.99996 6.24995ZM12 6.24995C12.3564 6.24995 12.6538 6.13072 12.8923 5.89226C13.1307 5.6538 13.2499 5.35637 13.2499 4.99996C13.2499 4.64356 13.1307 4.34613 12.8923 4.10767C12.6538 3.86921 12.3564 3.74998 12 3.74998C11.6436 3.74998 11.3461 3.86921 11.1077 4.10767C10.8692 4.34613 10.75 4.64356 10.75 4.99996C10.75 5.35637 10.8692 5.6538 11.1077 5.89226C11.3461 6.13072 11.6436 6.24995 12 6.24995ZM15 10.2499C15.3564 10.2499 15.6538 10.1307 15.8923 9.89226C16.1307 9.6538 16.2499 9.35637 16.2499 8.99996C16.2499 8.64356 16.1307 8.34613 15.8923 8.10767C15.6538 7.86921 15.3564 7.74998 15 7.74998C14.6436 7.74998 14.3461 7.86921 14.1077 8.10767C13.8692 8.34613 13.75 8.64356 13.75 8.99996C13.75 9.35637 13.8692 9.6538 14.1077 9.89226C14.3461 10.1307 14.6436 10.2499 15 10.2499ZM9.48073 17.5C9.64355 17.5 9.7708 17.4599 9.86246 17.3798C9.95413 17.2996 9.99996 17.1897 9.99996 17.05C9.99996 16.8166 9.87496 16.5545 9.62496 16.2634C9.37496 15.9724 9.24996 15.5166 9.24996 14.8961C9.24996 14.1833 9.49163 13.6057 9.97496 13.1634C10.4583 12.7211 11.05 12.5 11.75 12.5H13.5C14.6769 12.5 15.6378 12.1551 16.3827 11.4653C17.1275 10.7756 17.5 9.77816 17.5 8.47303C17.5 6.44996 16.7243 4.78201 15.173 3.46919C13.6218 2.15637 11.8038 1.49996 9.7192 1.49996C7.4333 1.49996 5.49195 2.27496 3.89516 3.82496C2.29836 5.37496 1.49996 7.26663 1.49996 9.49996C1.49996 11.7166 2.27913 13.6041 3.83746 15.1625C5.3958 16.7208 7.27689 17.5 9.48073 17.5Z" fill="#0B0B0B"/>
</svg>
