<svg width="48" height="48" viewBox="0 0 48 48" fill="none" xmlns="http://www.w3.org/2000/svg">
<rect width="48" height="48" rx="24" fill="#FFE088"/>
<path d="M16.5 31V17C16.5 17 16.5 17.3708 16.5 18.1125C16.5 18.8542 16.5 19.8167 16.5 21V27C16.5 28.1833 16.5 29.1458 16.5 29.8875C16.5 30.6292 16.5 31 16.5 31ZM16.5 33C15.95 33 15.4792 32.8042 15.0875 32.4125C14.6958 32.0208 14.5 31.55 14.5 31V17C14.5 16.45 14.6958 15.9792 15.0875 15.5875C15.4792 15.1958 15.95 15 16.5 15H30.5C31.05 15 31.5208 15.1958 31.9125 15.5875C32.3042 15.9792 32.5 16.45 32.5 17V19.5H30.5V17H16.5V31H30.5V28.5H32.5V31C32.5 31.55 32.3042 32.0208 31.9125 32.4125C31.5208 32.8042 31.05 33 30.5 33H16.5ZM24.5 29C23.95 29 23.4792 28.8042 23.0875 28.4125C22.6958 28.0208 22.5 27.55 22.5 27V21C22.5 20.45 22.6958 19.9792 23.0875 19.5875C23.4792 19.1958 23.95 19 24.5 19H31.5C32.05 19 32.5208 19.1958 32.9125 19.5875C33.3042 19.9792 33.5 20.45 33.5 21V27C33.5 27.55 33.3042 28.0208 32.9125 28.4125C32.5208 28.8042 32.05 29 31.5 29H24.5ZM31.5 27V21H24.5V27H31.5ZM27.5 25.5C27.9167 25.5 28.2708 25.3542 28.5625 25.0625C28.8542 24.7708 29 24.4167 29 24C29 23.5833 28.8542 23.2292 28.5625 22.9375C28.2708 22.6458 27.9167 22.5 27.5 22.5C27.0833 22.5 26.7292 22.6458 26.4375 22.9375C26.1458 23.2292 26 23.5833 26 24C26 24.4167 26.1458 24.7708 26.4375 25.0625C26.7292 25.3542 27.0833 25.5 27.5 25.5Z" fill="#735C00"/>
</svg>
